<svg xmlns="http://www.w3.org/2000/svg" xmlns:xlink="http://www.w3.org/1999/xlink" width="180" zoomAndPan="magnify" viewBox="0 0 135 60" height="80" preserveAspectRatio="xMidYMid meet" version="1.0"><defs><g/><clipPath id="17244d5369"><path d="M 14.75 25.480469 L 48 25.480469 L 48 54.730469 L 14.75 54.730469 Z M 14.75 25.480469 " clip-rule="nonzero"/></clipPath><clipPath id="081f6c68bd"><path d="M 11 4.917969 L 48 4.917969 L 48 55.167969 L 11 55.167969 Z M 11 4.917969 " clip-rule="nonzero"/></clipPath><clipPath id="3d8f9861c1"><path d="M 28 33 L 39 33 L 39 55 L 28 55 Z M 28 33 " clip-rule="nonzero"/></clipPath><clipPath id="30397cb3c4"><path d="M 28.496094 33.628906 L 38.246094 33.429688 L 38.683594 55.175781 L 28.9375 55.371094 Z M 28.496094 33.628906 " clip-rule="nonzero"/></clipPath><clipPath id="39e74f0987"><path d="M 28.496094 33.628906 L 48.742188 33.21875 L 49.183594 54.964844 L 28.9375 55.371094 Z M 28.496094 33.628906 " clip-rule="nonzero"/></clipPath><clipPath id="6985703f16"><path d="M 38 33 L 48 33 L 48 55 L 38 55 Z M 38 33 " clip-rule="nonzero"/></clipPath><clipPath id="03456a4ff7"><path d="M 37.667969 33.4375 L 47.417969 33.242188 L 47.855469 54.988281 L 38.109375 55.183594 Z M 37.667969 33.4375 " clip-rule="nonzero"/></clipPath><clipPath id="319c7f93d1"><path d="M 27.570312 33.640625 L 47.816406 33.234375 L 48.257812 54.976562 L 28.011719 55.386719 Z M 27.570312 33.640625 " clip-rule="nonzero"/></clipPath></defs><g clip-path="url(#17244d5369)"><path fill="#658d54" d="M 47.957031 27.476562 L 47.105469 19.957031 C 46.957031 18.640625 45.835938 17.640625 44.507812 17.640625 L 40.277344 17.640625 L 40.277344 15.492188 C 40.277344 10.457031 36.183594 6.367188 31.148438 6.367188 C 26.113281 6.367188 22.023438 10.457031 22.023438 15.492188 L 22.023438 17.640625 L 17.792969 17.640625 C 16.464844 17.640625 15.34375 18.640625 15.191406 19.957031 L 11.371094 53.515625 C 11.183594 55.125 12.441406 56.523438 14.0625 56.523438 L 15.484375 56.523438 C 21.359375 31.3125 40.183594 27.816406 47.957031 27.476562 Z M 39.109375 20.378906 C 39.75 20.378906 40.277344 20.902344 40.277344 21.542969 C 40.277344 22.183594 39.75 22.710938 39.109375 22.710938 C 38.46875 22.710938 37.945312 22.183594 37.945312 21.542969 C 37.945312 20.902344 38.46875 20.378906 39.109375 20.378906 Z M 24.355469 15.503906 C 24.355469 11.765625 27.394531 8.710938 31.148438 8.710938 C 34.902344 8.710938 37.945312 11.765625 37.945312 15.503906 L 37.945312 17.652344 L 24.355469 17.652344 Z M 23.1875 20.378906 C 23.828125 20.378906 24.355469 20.902344 24.355469 21.542969 C 24.355469 22.183594 23.828125 22.710938 23.1875 22.710938 C 22.546875 22.710938 22.023438 22.183594 22.023438 21.542969 C 22.023438 20.902344 22.546875 20.378906 23.1875 20.378906 Z M 23.1875 20.378906 " fill-opacity="1" fill-rule="nonzero"/></g><g clip-path="url(#081f6c68bd)"><path fill="#264219" d="M 47.828125 26.070312 L 46.980469 18.554688 C 46.828125 17.238281 45.707031 16.234375 44.378906 16.234375 L 40.148438 16.234375 L 40.148438 14.089844 C 40.148438 9.054688 36.058594 4.960938 31.019531 4.960938 C 25.984375 4.960938 21.894531 9.054688 21.894531 14.089844 L 21.894531 16.234375 L 17.664062 16.234375 C 16.335938 16.234375 15.214844 17.238281 15.0625 18.554688 L 11.242188 52.113281 C 11.054688 53.71875 12.3125 55.117188 13.933594 55.117188 L 15.355469 55.117188 C 21.230469 29.90625 40.054688 26.410156 47.828125 26.070312 Z M 38.984375 18.972656 C 39.625 18.972656 40.148438 19.496094 40.148438 20.140625 C 40.148438 20.78125 39.625 21.304688 38.984375 21.304688 C 38.339844 21.304688 37.816406 20.78125 37.816406 20.140625 C 37.816406 19.496094 38.339844 18.972656 38.984375 18.972656 Z M 24.226562 14.101562 C 24.226562 10.359375 27.269531 7.304688 31.019531 7.304688 C 34.773438 7.304688 37.816406 10.359375 37.816406 14.101562 L 37.816406 16.246094 L 24.226562 16.246094 Z M 23.058594 18.972656 C 23.703125 18.972656 24.226562 19.496094 24.226562 20.140625 C 24.226562 20.78125 23.703125 21.304688 23.058594 21.304688 C 22.417969 21.304688 21.894531 20.78125 21.894531 20.140625 C 21.894531 19.496094 22.417969 18.972656 23.058594 18.972656 Z M 23.058594 18.972656 " fill-opacity="1" fill-rule="nonzero"/></g><g clip-path="url(#3d8f9861c1)"><g clip-path="url(#30397cb3c4)"><g clip-path="url(#39e74f0987)"><path fill="#264219" d="M 37.898438 33.445312 L 38.332031 54.878906 C 37.445312 54.835938 36.585938 54.6875 35.769531 54.441406 C 32.546875 53.472656 29.953125 51.035156 28.785156 47.890625 L 31.316406 47.007812 C 32.097656 49.066406 33.695312 50.71875 35.710938 51.574219 L 35.414062 36.855469 C 34.695312 37.195312 34.039062 37.636719 33.457031 38.160156 L 31.664062 36.167969 C 32.722656 35.210938 33.976562 34.464844 35.355469 33.988281 C 36.164062 33.710938 37.015625 33.523438 37.898438 33.445312 Z M 37.898438 33.445312 " fill-opacity="1" fill-rule="nonzero"/></g></g></g><g clip-path="url(#6985703f16)"><g clip-path="url(#03456a4ff7)"><g clip-path="url(#319c7f93d1)"><path fill="#264219" d="M 45.503906 46.960938 L 48.007812 47.914062 C 46.914062 50.863281 44.554688 53.210938 41.578125 54.285156 C 40.773438 54.574219 39.921875 54.769531 39.035156 54.863281 L 38.601562 33.449219 C 39.492188 33.503906 40.351562 33.664062 41.167969 33.921875 C 44.183594 34.875 46.636719 37.125 47.851562 40.027344 L 45.382812 41.078125 C 44.59375 39.175781 43.097656 37.648438 41.226562 36.808594 L 41.519531 51.398438 C 43.355469 50.484375 44.789062 48.894531 45.503906 46.960938 Z M 45.503906 46.960938 " fill-opacity="1" fill-rule="nonzero"/></g></g></g><g fill="#264219" fill-opacity="1"><g transform="translate(55.70348, 34.942825)"><g><path d="M 1.71875 -16.9375 C 1.53125 -16.9375 1.4375 -17.015625 1.4375 -17.171875 L 1.4375 -20.203125 C 1.4375 -20.359375 1.53125 -20.4375 1.71875 -20.4375 L 8.65625 -20.4375 C 8.832031 -20.4375 8.921875 -20.359375 8.921875 -20.203125 L 8.921875 -16.9375 Z M 5.03125 -13.4375 L 8.921875 -13.4375 L 8.921875 -6.03125 C 8.921875 -5.019531 8.769531 -4.171875 8.46875 -3.484375 C 8.164062 -2.796875 7.785156 -2.226562 7.328125 -1.78125 C 6.867188 -1.34375 6.378906 -1 5.859375 -0.75 C 5.335938 -0.507812 4.847656 -0.335938 4.390625 -0.234375 C 3.929688 -0.128906 3.550781 -0.0625 3.25 -0.03125 C 2.957031 -0.0078125 2.8125 0 2.8125 0 L 0.28125 0 C 0.09375 0 0 -0.078125 0 -0.234375 L 0 -3.546875 C 0 -3.703125 0.09375 -3.78125 0.28125 -3.78125 L 2.8125 -3.78125 C 3.375 -3.78125 3.800781 -3.894531 4.09375 -4.125 C 4.394531 -4.351562 4.613281 -4.613281 4.75 -4.90625 C 4.882812 -5.195312 4.960938 -5.457031 4.984375 -5.6875 C 5.015625 -5.914062 5.03125 -6.03125 5.03125 -6.03125 Z M 5.03125 -13.4375 "/></g></g></g><g fill="#264219" fill-opacity="1"><g transform="translate(65.081464, 34.942825)"><g><path d="M 16.046875 -0.3125 C 16.078125 -0.238281 16.066406 -0.164062 16.015625 -0.09375 C 15.960938 -0.03125 15.894531 0 15.8125 0 L 12.28125 0 C 12.164062 0 12.09375 -0.0507812 12.0625 -0.15625 L 8.015625 -11.546875 L 4.03125 -0.15625 C 4.019531 -0.0507812 3.9375 0 3.78125 0 L 0.28125 0 C 0.164062 0 0.0820312 -0.03125 0.03125 -0.09375 C -0.0078125 -0.164062 -0.0078125 -0.238281 0.03125 -0.3125 L 7.765625 -20.28125 C 7.796875 -20.382812 7.878906 -20.4375 8.015625 -20.4375 C 8.148438 -20.4375 8.238281 -20.382812 8.28125 -20.28125 Z M 16.046875 -0.3125 "/></g></g></g><g fill="#264219" fill-opacity="1"><g transform="translate(81.946502, 34.942825)"><g><path d="M 9.96875 -14.359375 C 9.96875 -14.972656 9.8125 -15.441406 9.5 -15.765625 C 9.195312 -16.097656 8.847656 -16.335938 8.453125 -16.484375 C 8.066406 -16.628906 7.71875 -16.710938 7.40625 -16.734375 C 7.101562 -16.765625 6.953125 -16.78125 6.953125 -16.78125 L 3.890625 -16.78125 L 3.890625 -12.109375 L 6.953125 -12.109375 C 6.953125 -12.109375 7.101562 -12.117188 7.40625 -12.140625 C 7.71875 -12.171875 8.066406 -12.253906 8.453125 -12.390625 C 8.847656 -12.523438 9.195312 -12.742188 9.5 -13.046875 C 9.8125 -13.359375 9.96875 -13.796875 9.96875 -14.359375 Z M 13.875 -14.59375 C 13.875 -13.394531 13.597656 -12.445312 13.046875 -11.75 C 12.492188 -11.050781 11.820312 -10.539062 11.03125 -10.21875 C 11.851562 -9.945312 12.476562 -9.578125 12.90625 -9.109375 C 13.332031 -8.640625 13.632812 -8.160156 13.8125 -7.671875 C 13.988281 -7.191406 14.085938 -6.785156 14.109375 -6.453125 C 14.140625 -6.117188 14.15625 -5.953125 14.15625 -5.953125 C 14.15625 -4.804688 13.953125 -3.867188 13.546875 -3.140625 C 13.148438 -2.410156 12.640625 -1.832031 12.015625 -1.40625 C 11.398438 -0.976562 10.753906 -0.660156 10.078125 -0.453125 C 9.398438 -0.253906 8.773438 -0.128906 8.203125 -0.078125 C 7.640625 -0.0234375 7.222656 0 6.953125 0 L 3.90625 0 L 3.90625 -3.734375 L 6.953125 -3.734375 C 7.378906 -3.734375 7.847656 -3.785156 8.359375 -3.890625 C 8.867188 -4.003906 9.3125 -4.226562 9.6875 -4.5625 C 10.0625 -4.90625 10.25 -5.398438 10.25 -6.046875 C 10.25 -6.523438 10.132812 -6.910156 9.90625 -7.203125 C 9.6875 -7.503906 9.414062 -7.734375 9.09375 -7.890625 C 8.769531 -8.046875 8.441406 -8.148438 8.109375 -8.203125 C 7.773438 -8.253906 7.5 -8.28125 7.28125 -8.28125 C 7.0625 -8.289062 6.953125 -8.296875 6.953125 -8.296875 L 0 -8.296875 L 0 -20.203125 C 0 -20.359375 0.09375 -20.4375 0.28125 -20.4375 L 6.953125 -20.4375 C 6.953125 -20.4375 7.113281 -20.425781 7.4375 -20.40625 C 7.769531 -20.394531 8.203125 -20.34375 8.734375 -20.25 C 9.265625 -20.15625 9.820312 -19.992188 10.40625 -19.765625 C 11 -19.535156 11.554688 -19.207031 12.078125 -18.78125 C 12.609375 -18.351562 13.039062 -17.796875 13.375 -17.109375 C 13.707031 -16.429688 13.875 -15.59375 13.875 -14.59375 Z M 13.875 -14.59375 "/></g></g></g><g fill="#264219" fill-opacity="1"><g transform="translate(96.818401, 34.942825)"><g><path d="M 11.75 -10.171875 C 11.75 -9.640625 11.566406 -9.1875 11.203125 -8.8125 C 10.835938 -8.4375 10.378906 -8.25 9.828125 -8.25 C 9.304688 -8.25 8.859375 -8.4375 8.484375 -8.8125 C 8.109375 -9.1875 7.921875 -9.640625 7.921875 -10.171875 C 7.921875 -10.710938 8.109375 -11.171875 8.484375 -11.546875 C 8.859375 -11.921875 9.304688 -12.109375 9.828125 -12.109375 C 10.378906 -12.109375 10.835938 -11.921875 11.203125 -11.546875 C 11.566406 -11.171875 11.75 -10.710938 11.75 -10.171875 Z M 19.671875 -10.25 C 19.671875 -8.96875 19.460938 -7.71875 19.046875 -6.5 C 18.640625 -5.28125 18.03125 -4.179688 17.21875 -3.203125 C 16.40625 -2.222656 15.382812 -1.441406 14.15625 -0.859375 C 12.925781 -0.285156 11.492188 0 9.859375 0 C 8.210938 0 6.769531 -0.285156 5.53125 -0.859375 C 4.289062 -1.441406 3.257812 -2.222656 2.4375 -3.203125 C 1.625 -4.179688 1.015625 -5.28125 0.609375 -6.5 C 0.203125 -7.71875 0 -8.96875 0 -10.25 C 0 -11.519531 0.203125 -12.757812 0.609375 -13.96875 C 1.015625 -15.175781 1.625 -16.265625 2.4375 -17.234375 C 3.257812 -18.210938 4.289062 -18.988281 5.53125 -19.5625 C 6.769531 -20.144531 8.210938 -20.4375 9.859375 -20.4375 C 11.492188 -20.4375 12.925781 -20.144531 14.15625 -19.5625 C 15.382812 -18.988281 16.40625 -18.210938 17.21875 -17.234375 C 18.03125 -16.265625 18.640625 -15.175781 19.046875 -13.96875 C 19.460938 -12.757812 19.671875 -11.519531 19.671875 -10.25 Z M 15.84375 -10.171875 C 15.84375 -11.003906 15.710938 -11.816406 15.453125 -12.609375 C 15.203125 -13.398438 14.828125 -14.113281 14.328125 -14.75 C 13.835938 -15.394531 13.21875 -15.898438 12.46875 -16.265625 C 11.71875 -16.640625 10.847656 -16.828125 9.859375 -16.828125 C 8.859375 -16.828125 7.984375 -16.640625 7.234375 -16.265625 C 6.484375 -15.898438 5.851562 -15.394531 5.34375 -14.75 C 4.84375 -14.113281 4.46875 -13.398438 4.21875 -12.609375 C 3.976562 -11.816406 3.859375 -11.003906 3.859375 -10.171875 C 3.859375 -9.347656 3.976562 -8.546875 4.21875 -7.765625 C 4.46875 -6.984375 4.84375 -6.273438 5.34375 -5.640625 C 5.851562 -5.015625 6.484375 -4.515625 7.234375 -4.140625 C 7.984375 -3.765625 8.859375 -3.578125 9.859375 -3.578125 C 10.847656 -3.578125 11.71875 -3.765625 12.46875 -4.140625 C 13.21875 -4.515625 13.835938 -5.015625 14.328125 -5.640625 C 14.828125 -6.273438 15.203125 -6.984375 15.453125 -7.765625 C 15.710938 -8.546875 15.84375 -9.347656 15.84375 -10.171875 Z M 15.84375 -10.171875 "/></g></g></g><path stroke-linecap="butt" transform="matrix(0.156294, 0.00922277, -0.00922277, 0.156294, 76.484654, 25.975541)" fill="none" stroke-linejoin="miter" d="M 2.749251 106.763905 C 2.752247 99.190882 3.386715 91.730553 4.654125 84.407826 C 5.944972 77.058723 7.556739 70.065575 9.512861 63.402009 C 11.468983 56.738442 13.511659 50.69459 15.667266 45.29389 C 17.190245 41.455086 19.025246 37.397928 21.148834 33.14879 C 23.320764 28.871806 25.77989 24.802812 28.52768 20.966712 C 31.272531 17.0808 34.257782 13.880504 37.455589 11.31748 C 39.701239 9.560428 42.138868 8.091963 44.81829 6.909145 C 47.471335 5.70289 50.084935 5.098792 52.634182 5.098321 C 54.559306 5.109686 56.383413 5.526898 58.131411 6.348488 C 59.905785 7.193514 61.459021 8.526454 62.816025 10.345838 C 64.646404 12.987048 65.643122 15.477508 65.832554 17.840654 C 66.046893 20.202331 66.154337 22.870231 66.157826 25.894165 C 66.164176 28.543037 65.764757 31.515768 64.961039 34.837263 C 64.155852 38.133852 63.106012 41.519857 61.789552 45.046559 C 60.471623 48.548355 59.121439 51.92709 57.712625 55.159327 C 56.328716 58.390095 55.020918 61.216485 53.837572 63.610652 C 53.443639 64.558634 53.087761 65.304428 52.768469 65.823127 C 52.447707 66.31692 51.694721 66.686261 50.484607 66.932618 C 49.4428 66.219315 48.954807 65.573302 48.997193 65.020958 C 49.039578 64.468613 49.339765 63.626134 49.899222 62.518426 C 50.197939 61.651041 50.525972 60.856904 50.832037 60.11405 C 51.164478 59.394632 51.470544 58.651777 51.798576 57.857641 C 54.197366 52.342619 56.388088 46.689917 58.420555 40.896597 C 60.479399 35.126713 61.493574 29.018587 61.487987 22.57075 C 61.49749 18.496348 60.647191 15.522383 58.986904 13.645916 C 57.30171 11.770919 55.221114 10.818999 52.746585 10.815061 C 48.522745 10.814376 44.347641 12.910219 40.193427 17.054246 C 36.771622 20.480246 33.596096 24.691486 30.66538 29.66306 C 27.785946 34.656601 25.17615 39.984131 22.83893 45.695463 C 20.526616 51.405325 18.538082 57.096082 16.871859 62.742826 C 15.1822 68.415946 13.866054 73.642147 12.923423 78.421427 C 11.809466 83.685682 10.850903 89.465619 10.046265 95.73633 C 9.265064 101.980665 8.983455 108.220513 9.202909 114.480779 C 9.472176 120.738106 10.589644 126.545496 12.578748 131.876572 C 13.601999 135.240217 15.299107 138.164212 17.646637 140.674934 C 20.019073 143.184186 23.093055 144.452381 26.916926 144.451675 C 30.365735 144.448107 33.711822 143.550857 36.955189 141.759924 C 40.223462 139.967522 43.06539 138.150292 45.457538 136.33461 L 49.544461 132.744397 C 50.351589 132.021961 51.064972 131.405029 51.686078 130.918506 C 52.308653 130.456889 53.045472 129.813581 53.848191 129.016427 C 58.208925 124.560298 62.172551 119.727717 65.661412 114.473278 C 69.203025 109.265713 72.480879 103.823783 75.546257 98.169454 C 78.611634 92.515126 81.605233 86.915019 84.480179 81.421885 C 85.174377 80.056298 85.868653 79.115586 86.539572 78.626123 C 87.232457 78.085379 87.841884 77.824481 88.416196 77.815585 C 88.967071 77.833064 89.403703 78.032235 89.702655 78.439473 C 90.025044 78.820336 90.197996 79.210016 90.196605 79.609985 L 72.374006 112.177715 C 71.27257 113.842255 70.169664 115.481889 69.087256 117.045334 C 68.007786 118.658592 66.877035 120.249883 65.696471 121.844113 C 64.02815 124.066955 61.737254 126.751413 58.872124 129.869643 C 56.006995 132.987872 52.7873 136.027053 49.21451 139.012091 C 45.668096 142.020565 41.989724 144.486982 38.155958 146.437718 C 34.347097 148.386984 30.555638 149.360501 26.781579 149.358268 C 22.831708 149.341417 19.4003 148.369235 16.562074 146.437312 C 13.747284 144.479014 11.421722 141.917011 9.608822 138.724926 C 7.820829 135.531372 6.440074 132.038865 5.440181 128.223969 C 4.443228 124.458886 3.746618 120.701072 3.373789 116.924153 C 2.954086 113.199985 2.754209 109.812746 2.749251 106.763905 Z M 91.403981 96.258984 C 92.58331 95.914471 93.670207 94.850619 94.614857 93.070367 C 95.584414 91.288644 96.262367 89.224215 96.651655 86.92689 C 97.065849 84.628096 97.165082 82.497844 96.949352 80.536135 C 96.758528 78.572957 96.154666 77.233981 95.112859 76.520678 C 94.863954 77.385124 94.412939 78.636389 93.759814 80.274475 C 93.156501 81.909621 92.53857 83.72058 91.929457 85.680975 C 91.34525 87.639902 90.957353 89.537258 90.74233 91.39942 C 90.528776 93.286489 90.773743 94.896572 91.403981 96.258984 Z M 85.415428 92.18862 C 85.428419 91.138152 85.637642 89.601239 86.068003 87.576413 C 86.496894 85.52668 87.142592 83.339189 87.930379 81.01835 C 88.715227 78.647698 89.633423 76.419134 90.60878 74.312162 C 91.609043 72.20372 92.681164 70.465932 93.825143 69.098796 C 94.994028 67.730191 96.179157 67.060429 97.402499 67.038226 C 98.202436 67.041009 98.74898 67.408644 99.067039 68.139662 C 99.358721 68.847245 99.443806 69.442053 99.298857 69.950464 C 99.146559 70.334345 98.844824 70.727043 98.393652 71.12856 C 97.967386 71.528607 97.593872 71.975526 97.27164 72.444413 C 97.428504 72.985 97.815402 73.611985 98.455771 74.298992 C 99.094671 74.961092 99.723361 75.873723 100.365278 77.010511 C 101.005725 78.122392 101.444062 79.621092 101.631947 81.534458 C 101.819831 83.447824 101.593207 85.960486 100.952075 89.072445 C 100.072326 93.223192 98.68107 96.329429 96.779775 98.416061 C 94.877011 100.477786 93.013614 101.51248 91.164679 101.521613 C 89.66443 101.510169 88.31934 100.739783 87.152845 99.184079 C 85.986351 97.628374 85.423325 95.287273 85.415428 92.18862 Z M 106.693878 89.808321 C 106.70779 85.808637 106.928221 81.496852 107.406454 76.894933 C 107.883216 72.268107 108.537262 67.680806 109.343683 63.134499 C 110.125199 58.589662 111.006418 54.463821 111.963903 50.783351 C 112.368045 49.584837 112.764838 48.261792 113.152814 46.789311 C 113.564226 45.290453 114.089959 44.034778 114.700699 42.949038 C 115.362721 41.885264 116.205043 41.335701 117.255511 41.348693 C 118.204885 41.342657 118.801241 41.707353 119.018206 42.419344 C 119.260076 43.129866 119.285139 43.978145 119.094865 44.989089 C 118.904591 46.000032 118.633719 46.91576 118.307156 47.734803 C 117.982064 48.578752 117.791711 49.164821 117.709722 49.469574 C 117.075782 51.856314 116.343843 55.123588 115.486061 59.223054 C 114.653185 63.321049 113.86873 67.816074 113.10632 72.684692 C 112.343911 77.553309 111.754375 82.386732 111.336242 87.160056 C 110.967922 91.930439 110.873492 96.259782 111.127669 100.143675 C 111.380376 104.002661 112.00652 106.989853 113.052971 109.052499 C 114.409505 108.322636 115.521307 107.257314 116.410345 105.805251 C 117.275947 104.379564 118.043394 102.984661 118.687779 101.622014 C 120.505301 98.11573 122.311066 94.410197 124.055261 90.508354 C 125.797987 86.581605 127.656503 82.922945 129.578059 79.485502 C 130.203417 78.223948 130.865517 77.585049 131.590736 77.59224 C 131.915986 77.598041 132.173865 77.732781 132.389281 77.994991 C 132.581261 78.283577 132.673615 78.578042 132.667815 78.903292 C 132.681042 79.127448 132.35154 79.896678 131.702746 81.184607 C 131.052482 82.44763 130.405157 83.760466 129.710959 85.126053 C 129.065104 86.463795 128.61695 87.339998 128.366497 87.754664 C 127.590311 89.425004 126.680854 91.378129 125.664502 93.637478 C 124.670118 95.845544 123.69917 98.027235 122.728222 100.208925 C 121.78071 102.36424 120.863905 104.192835 120.002712 105.693241 C 119.591143 106.34235 119.041895 107.199526 118.354967 108.264769 C 117.694415 109.353449 116.975233 110.295631 116.172513 111.092786 C 115.369794 111.88994 114.443936 112.294475 113.418374 112.280013 C 111.81997 112.299355 110.573035 111.498184 109.629226 109.904346 C 108.710323 108.309038 108.041873 106.299066 107.650251 103.897864 C 107.2601 101.521569 106.9886 99.038301 106.888505 96.494932 C 106.762033 93.928127 106.70595 91.707069 106.693878 89.808321 Z M 127.761793 89.789778 C 127.752268 85.81647 127.997606 81.503215 128.450932 76.902765 C 128.951131 72.249564 129.58027 67.663733 130.388162 63.142332 C 131.193114 58.571119 132.050896 54.471653 133.008381 50.791184 C 133.437429 49.5912 133.834223 48.268155 134.220728 46.770767 C 134.63361 45.296816 135.132968 44.017705 135.770083 42.9554 C 136.407199 41.893096 137.249521 41.343534 138.299989 41.356526 C 139.249363 41.35049 139.84572 41.715186 140.08759 42.425707 C 140.32946 43.136229 140.329617 43.985978 140.139343 44.996921 C 139.947599 45.982959 139.676728 46.898687 139.351635 47.742636 C 139.051448 48.585115 138.859626 49.146278 138.779107 49.475937 C 138.12026 51.864146 137.386852 55.106514 136.555445 59.229416 C 135.722569 63.327412 134.913208 67.823907 134.150799 72.692524 C 133.388389 77.561141 132.823759 82.393095 132.405627 87.166418 C 132.012401 91.938272 131.942876 96.266145 132.170677 100.126601 C 132.424855 104.010494 133.074434 106.97131 134.09598 109.035425 C 135.453983 108.330469 136.589222 107.238771 137.454824 105.813084 C 138.320425 104.387396 139.087872 102.992494 139.732257 101.629846 C 141.574686 98.122093 143.355545 94.41803 145.09827 90.491281 C 146.867371 86.587968 148.699512 82.905872 150.622537 79.493334 C 151.247895 78.231781 151.934902 77.591412 152.635214 77.600073 C 152.9839 77.579497 153.24325 77.739143 153.43376 78.002824 C 153.624269 78.266504 153.718094 78.585875 153.712293 78.911125 C 153.725521 79.13528 153.396019 79.90451 152.77213 81.19097 C 152.121866 82.453993 151.449635 83.768298 150.780343 85.132416 C 150.109582 86.471627 149.661428 87.347831 149.435881 87.761026 C 148.634789 89.432836 147.725332 91.385962 146.707511 93.620404 C 145.714596 95.853377 144.743648 98.035067 143.796136 100.190382 C 142.850095 102.370603 141.933289 104.199198 141.045721 105.676167 C 140.634152 106.325276 140.084904 107.182452 139.422882 108.246226 C 138.7638 109.359812 138.019711 110.303464 137.216992 111.100618 C 136.414273 111.897773 135.51332 112.300837 134.487758 112.286376 C 132.887884 112.280811 131.616043 111.48111 130.672234 109.887272 C 129.753331 108.291965 129.111257 106.305429 128.69473 103.905697 C 128.303108 101.504495 128.057985 99.044663 127.931513 96.477858 C 127.806511 93.935959 127.750428 91.714901 127.761793 89.789778 Z M 154.070954 77.365394 C 155.597421 76.550525 157.257159 75.45287 159.09998 74.069489 C 160.941332 72.661203 161.943143 71.002542 162.105415 69.093506 C 161.065235 69.254858 159.972381 69.794211 158.804888 70.762848 C 157.66083 71.705108 156.650122 72.789458 155.821106 73.98805 C 154.992089 75.186643 154.407725 76.29582 154.070954 77.365394 Z M 148.691692 80.232094 C 148.698648 78.232252 149.347286 76.094573 150.659572 73.767776 C 151.971858 71.440979 153.605063 69.470138 155.557718 67.830348 C 157.535279 66.189088 159.461715 65.37561 161.361932 65.388444 C 164.010804 65.382095 165.369122 66.376636 165.488166 68.394036 C 165.630647 70.38506 164.78276 72.534496 162.944506 74.842344 C 161.98067 75.873941 160.52753 77.08437 158.633427 78.445783 C 156.712948 79.783761 154.858291 80.543017 153.016704 80.67668 C 153.01841 81.97621 153.061109 83.123363 153.143333 84.093234 C 153.20212 85.089481 153.761971 86.106146 154.797977 87.1447 C 155.833984 88.183254 157.140941 88.730954 158.739345 88.711612 C 160.838811 88.71269 162.974785 88.061797 165.197077 86.755996 C 167.444275 85.448726 169.153826 84.348131 170.350635 83.452743 C 170.826713 83.049757 171.207575 82.727368 171.468316 82.487046 C 171.778869 82.243784 172.112858 81.974147 172.493721 81.651758 C 174.168077 80.37829 175.237416 79.440438 175.651924 78.841142 C 176.091338 78.240376 176.492698 77.841799 176.781284 77.64982 C 177.119683 77.454901 177.888835 77.359528 179.063834 77.365171 C 179.239804 78.229539 179.324888 78.824348 179.267806 79.127631 C 179.2371 79.45435 178.939774 79.921767 178.378768 80.579694 C 176.938855 82.014278 175.110731 83.64672 172.919302 85.475551 C 170.727873 87.304381 168.37231 88.892968 165.87899 90.264748 C 163.360763 91.637998 160.876103 92.309466 158.401574 92.305528 C 157.102044 92.307233 155.890382 92.10381 154.74021 91.671822 C 153.588569 91.214929 152.49548 90.479658 151.433098 89.417668 C 150.02489 88.001191 149.21296 86.524536 148.998778 85.012608 C 148.784596 83.50068 148.690537 81.906686 148.691692 80.232094 Z M 174.549411 82.605148 C 174.540357 81.181088 174.840387 79.48886 175.402627 77.581215 C 176.016149 75.695538 176.855296 73.82154 177.921538 71.984126 C 179.012687 70.145243 180.295815 68.594947 181.772391 67.358142 C 183.248968 66.121338 184.886818 65.49984 186.636129 65.496586 C 189.185376 65.496115 190.454435 67.095753 190.468212 70.294031 C 190.464195 72.343685 189.950141 73.373734 188.901142 73.385649 C 187.701237 73.381475 186.99048 72.348722 186.743965 70.288858 C 185.375753 71.244346 184.072128 72.870831 182.83456 75.193219 C 181.596993 77.515607 180.793118 79.987354 180.373124 82.611398 C 179.978035 85.233973 180.264153 87.541428 181.231477 89.533765 C 181.64336 90.584154 182.220768 91.474819 182.988607 92.204289 C 183.728601 92.885417 184.824551 93.245625 186.248611 93.236572 C 189.04839 93.24631 191.626796 92.469339 193.960391 90.932034 C 196.318894 89.393259 198.456101 87.492649 200.426235 85.301984 C 202.371463 83.112788 204.096945 81.011537 205.529431 79.027548 C 206.40826 77.826016 207.19783 77.229581 207.923049 77.236772 C 208.472454 77.229345 208.865152 77.53108 209.098205 78.092165 C 209.354693 78.626873 209.269844 79.306688 208.891999 80.103764 C 208.714795 80.489114 208.440906 80.930155 208.070331 81.426887 C 207.721723 81.872338 207.398022 82.316318 207.07285 82.735392 C 205.394242 84.783891 203.47245 86.946711 201.330912 89.197477 C 199.187904 91.423336 196.825072 93.312267 194.293696 94.886236 C 191.735945 96.436768 189.008102 97.222557 186.133605 97.217228 C 183.434921 97.226517 181.218115 96.50757 179.511033 95.10873 C 177.779044 93.711359 176.523134 91.911002 175.741832 89.682752 C 174.935624 87.455973 174.545473 85.079677 174.549411 82.605148 Z M 169.868961 45.641926 C 169.883422 44.616364 170.842849 43.510048 172.775085 42.37132 C 174.680945 41.209156 177.087869 40.06741 179.995855 38.946083 C 182.903841 37.824756 185.965673 36.769329 189.206257 35.778333 C 192.420465 34.763901 195.39443 33.913602 198.101776 33.204001 C 200.807651 32.469493 202.849879 31.924105 204.226988 31.542928 C 205.897092 31.044491 207.055925 30.776166 207.725452 30.686672 C 208.394979 30.597178 208.830063 30.346569 209.030704 29.934843 C 209.253311 29.471835 209.47584 28.583952 209.720257 27.219913 C 210.351101 23.933612 211.093485 21.69043 211.921031 20.466931 C 212.772015 19.217057 213.585022 18.594246 214.384958 18.597028 C 215.033989 18.583722 215.554157 18.927921 215.995277 19.626685 C 216.434927 20.300543 216.65777 21.112158 216.663805 22.061532 C 216.656614 22.78675 216.599532 23.090034 216.517465 22.969912 C 216.435398 22.84979 216.426658 23.125228 216.514682 23.769849 C 216.5235 23.919286 216.535258 24.118535 216.573391 24.341221 C 216.6379 24.587343 216.657006 24.911123 216.655615 25.311092 C 216.66606 26.335184 216.446392 26.848004 216.047893 26.871519 C 215.647925 26.870128 215.250896 26.918549 214.858276 27.041689 C 214.464186 27.139922 214.256276 27.851992 214.256511 29.126615 C 215.207355 29.145486 216.273911 29.007571 217.407837 28.740716 C 218.590106 28.446015 219.603911 28.261227 220.474157 28.184882 C 223.984379 27.527876 227.499009 26.945588 230.993143 26.439488 C 234.512182 25.931918 238.095731 25.670471 241.768696 25.653677 C 243.693819 25.665042 245.066676 26.058896 245.963455 26.855736 C 246.835328 27.654046 247.157796 28.459783 246.929388 29.248041 C 246.677544 30.062675 245.801497 30.46427 244.301249 30.452826 C 244.138506 29.812614 244.021245 29.519619 243.972902 29.547465 C 243.92456 29.57531 243.546558 29.522637 242.862334 29.363069 C 242.532675 29.28255 241.880706 29.246044 240.931332 29.25208 C 239.25674 29.250924 237.04303 29.431538 234.266767 29.820299 C 231.537376 30.156307 228.662957 30.575853 225.718229 31.074526 C 222.770561 31.523386 220.148144 31.978047 217.82607 32.439978 C 215.527433 32.875532 214.019914 33.164433 213.303514 33.306678 L 210.902378 57.84143 C 210.836556 58.420151 210.79711 59.022308 210.860228 59.668399 C 210.89697 60.291053 210.908806 60.915177 210.897205 61.565677 C 210.894423 62.365613 210.849098 62.868146 210.737794 63.09965 C 210.601585 63.332623 210.560669 63.909874 210.563765 64.809436 C 210.567019 66.558746 210.584969 68.557119 210.670368 70.851426 C 210.752827 73.09592 210.707738 74.873076 210.558536 76.156518 C 210.476626 76.886145 210.410962 78.314615 210.360072 80.417021 C 210.309183 82.519427 210.278869 84.970519 210.242754 87.746861 C 210.20811 90.54811 210.173465 93.349358 210.166667 96.198949 C 210.183304 99.022164 210.185245 101.596318 210.171019 103.896503 C 210.183169 106.220126 210.206919 107.893248 210.293552 108.937837 C 210.295179 109.812493 210.397979 111.13105 210.578515 112.919885 C 210.810333 114.730687 210.85458 116.327621 210.740573 117.783936 C 210.625095 119.215345 210.018686 119.95093 208.968218 119.937938 C 207.469439 119.951401 206.56972 119.104748 206.22072 117.425826 C 205.921532 115.743964 205.755693 114.20419 205.770076 112.753754 C 205.526343 109.893953 205.379218 106.553587 205.327229 102.70775 C 205.300147 98.860442 205.29944 95.036571 205.32511 91.236137 C 205.397652 87.382951 205.426339 84.057203 205.406762 81.184175 L 205.773456 75.539136 C 205.758602 74.440325 205.756818 72.715921 205.771044 70.415735 C 205.758894 68.092113 205.814114 65.639551 205.885422 63.036083 C 205.9582 60.45752 206.044205 58.103113 206.117061 55.949425 C 206.189918 53.795737 206.299516 52.264703 206.473702 51.404666 C 206.650828 50.594442 206.744417 49.639189 206.779375 48.537439 C 206.83777 47.409313 206.880077 46.432094 206.957578 45.627748 L 208.051408 34.516343 C 207.705661 34.586731 207.015637 34.752413 205.931523 35.016329 C 204.870846 35.253869 204.006478 35.429839 203.366266 35.592581 C 199.448806 36.54854 195.735005 37.56746 192.17505 38.652281 C 188.64 39.735632 184.989238 40.975768 181.225703 42.422502 C 180.519591 42.73909 179.86476 43.077646 179.286118 43.436699 C 178.68257 43.797221 178.002833 44.137246 177.296721 44.453835 C 176.345956 44.859839 175.711623 45.122207 175.446473 45.28781 C 175.156417 45.454883 175.017268 45.638045 175.008528 45.913482 C 175.021756 46.137638 174.826994 46.648988 174.424243 47.447534 C 174.103402 47.516452 173.782561 47.58537 173.460251 47.629382 C 173.162847 47.671925 172.789254 47.69397 172.389286 47.692579 C 171.738786 47.680978 171.155656 47.540438 170.664803 47.269488 C 170.122667 46.976571 169.866179 46.441863 169.868961 45.641926 Z M 227.304365 99.461457 C 225.704492 99.455892 224.274474 98.940446 223.039218 97.91365 C 221.803962 96.886854 220.86611 95.817515 220.225662 94.705634 C 218.815749 91.989628 217.97566 88.765132 217.783052 85.077549 C 217.587505 81.340154 217.813972 77.977743 218.436077 74.966879 C 218.608794 74.081936 218.822504 73.044616 219.099176 71.803638 C 219.375848 70.56266 219.785868 69.463771 220.354144 68.505501 C 220.896044 67.523794 221.593338 67.057768 222.391805 67.035644 C 224.217304 67.052888 225.103795 67.675385 225.077655 68.926572 C 225.025139 70.154323 224.688524 72.073646 224.041435 74.661105 C 223.420721 77.272001 223.116596 80.589009 223.13053 84.637036 C 223.126357 85.836941 223.261411 87.278559 223.585505 88.958951 C 223.908129 90.614438 224.396279 92.110199 225.07192 93.394953 C 225.746092 94.654802 226.607677 95.278768 227.633239 95.29323 C 228.932769 95.291525 230.399215 94.730126 232.034047 93.633941 C 233.66594 92.487943 235.167423 91.249669 236.560463 89.867837 C 237.952034 88.461098 238.939305 87.403125 239.495902 86.67048 C 239.661427 86.510755 240.105251 85.984707 240.825903 85.067431 C 241.546555 84.150155 242.385859 83.125906 243.392158 81.966838 C 244.373551 80.80924 245.362292 79.776172 246.31004 78.895481 C 247.259256 78.039696 248.032739 77.594168 248.582144 77.586741 C 249.157925 77.60275 249.434911 78.061271 249.440947 79.010644 C 249.424937 79.586426 249.050032 80.433314 248.294264 81.602591 C 247.537027 82.746962 246.633292 83.949964 245.584529 85.236502 C 244.534296 86.498134 243.530937 87.707014 242.548074 88.839706 C 241.538836 89.948962 240.810835 90.741707 240.31426 91.220882 C 239.370922 92.176291 238.238622 93.317801 236.892455 94.646882 C 235.59463 95.948117 234.137081 97.083827 232.543243 98.027636 C 230.950875 98.996351 229.204582 99.474291 227.304365 99.461457 Z M 223.477581 51.975838 C 223.472936 50.626496 223.828736 49.455827 224.544979 48.463833 C 225.261222 47.471838 226.055202 46.950121 226.954763 46.947025 C 227.905606 46.965895 228.691003 47.569365 229.33586 48.755965 C 230.442412 50.990014 230.593632 52.705601 229.742649 53.955475 C 228.915102 55.178974 227.87794 55.815012 226.678035 55.810838 C 225.903004 55.806586 225.185056 55.499051 224.497814 54.864797 C 223.810572 54.230542 223.477816 53.250462 223.477581 51.975838 Z M 250.633783 96.260331 C 251.813112 95.915819 252.875102 94.853436 253.844659 93.071714 C 254.814216 91.289992 255.492169 89.225562 255.881457 86.928237 C 256.295651 84.629443 256.394883 82.499191 256.179154 80.537483 C 255.98833 78.574305 255.359561 77.236798 254.342661 76.522025 C 254.093756 77.386471 253.642741 78.637737 252.989616 80.275822 C 252.361397 81.912438 251.743466 83.723397 251.159259 85.682323 C 250.573582 87.616343 250.162249 89.540075 249.947225 91.402237 C 249.758578 93.287836 249.978638 94.899389 250.633783 96.260331 Z M 244.645229 92.189967 C 244.633315 91.140969 244.842538 89.604056 245.272899 87.57923 C 245.726696 85.528027 246.347488 83.342006 247.160181 81.019697 C 247.945029 78.649045 248.838319 76.421951 249.838582 74.313509 C 250.838845 72.205068 251.910966 70.467279 253.054945 69.100144 C 254.22383 67.731539 255.40749 67.03687 256.607395 67.041043 C 257.407332 67.043826 257.978782 67.409991 258.270465 68.117573 C 258.588523 68.848592 258.673608 69.4434 258.502283 69.928375 C 258.351455 70.337162 258.04972 70.72986 257.598548 71.131377 C 257.172282 71.531424 256.797298 71.953437 256.501442 72.44576 C 256.658306 72.986348 257.045204 73.613332 257.660667 74.301809 C 258.299566 74.963909 258.953163 75.875071 259.59508 77.011858 C 260.235527 78.123739 260.648958 79.623909 260.836843 81.537275 C 261.049633 83.449171 260.823009 85.961833 260.181877 89.073792 C 259.302128 93.224539 257.910871 96.330776 256.009577 98.417408 C 254.081907 100.480603 252.21851 101.515297 250.394481 101.52296 C 248.869326 101.512986 247.524236 100.7426 246.357741 99.186896 C 245.216152 97.629722 244.628221 95.29009 244.645229 92.189967 Z M 269.047788 92.774423 C 267.524103 92.789355 266.545257 91.872393 266.11125 90.023536 C 265.678713 88.199586 265.618221 85.903809 265.931242 83.161113 C 266.26917 80.416947 266.831253 77.659553 267.668773 74.9109 C 268.504824 72.13734 269.443518 69.832588 270.486323 68.021551 C 271.502753 66.187077 272.472467 65.255104 273.348592 65.278383 C 274.697934 65.273739 275.3588 65.884557 275.282848 67.138684 C 275.205425 68.367904 274.801362 69.991293 274.072127 72.033755 C 273.342892 74.076218 272.623945 76.293024 271.918225 78.733986 C 271.187599 81.176417 270.826157 83.522084 270.836837 85.8208 L 276.594471 77.083436 C 276.817078 76.620428 277.34289 75.789628 278.123564 74.618881 C 278.926205 73.396852 279.835818 72.293476 280.82456 71.260408 C 281.811831 70.202435 282.780154 69.67043 283.730997 69.6893 C 284.705277 69.681795 285.467238 70.311641 286.018348 71.603743 L 286.76238 78.282927 C 286.755189 79.008145 286.796419 80.130393 286.861163 81.651139 C 286.950814 83.170415 287.116653 84.710188 287.383587 86.268989 C 287.675426 87.82632 288.153288 89.147738 288.768829 90.261089 C 289.409277 91.37297 290.291359 91.920749 291.416546 91.929331 C 292.616451 91.933505 293.848454 91.210991 295.165306 89.808661 C 296.479218 88.356519 297.756467 86.706598 298.995583 84.833991 C 300.233229 82.936478 301.361041 81.295374 302.351173 79.862338 C 303.366212 78.427833 304.148434 77.706867 304.672933 77.70091 C 305.897745 77.703613 306.450168 78.170873 306.378546 79.074844 C 306.308393 80.003721 305.895433 81.052798 305.192417 82.268948 C 304.463026 83.461661 303.727755 84.55475 302.964639 85.599497 C 302.200053 86.619337 301.738672 87.271385 301.579026 87.530735 C 301.020959 88.238474 300.275401 89.157219 299.315975 90.263536 C 298.356549 91.369852 297.344371 92.429295 296.301408 93.390583 C 295.258445 94.351872 294.268156 94.935158 293.332009 95.16535 C 292.521863 95.413099 291.754181 95.533377 291.053869 95.524716 C 289.204934 95.533848 287.764628 94.84406 286.686079 93.508102 C 285.630966 92.145768 284.79413 90.670582 284.25029 89.078135 C 283.433794 86.677012 283.008527 84.552718 282.923206 82.683286 C 282.837886 80.813854 282.843451 79.21398 282.914994 77.885135 C 283.011444 76.55482 282.826656 75.541016 282.435349 74.839312 C 281.472905 75.470942 280.473954 76.754541 279.387215 78.668142 C 278.325382 80.580274 277.197648 82.646252 276.027451 84.8397 C 274.88069 87.006772 273.716293 88.87497 272.559166 90.442824 C 271.402038 92.010679 270.247694 92.778596 269.047788 92.774423 Z M 269.047788 92.774423 " stroke="#fffdf5" stroke-width="2.243119" stroke-opacity="1" stroke-miterlimit="4"/><g fill="#264219" fill-opacity="1"><g transform="translate(76.189451, 41.485148)"><g><path d="M -0.265625 1.203125 C -0.191406 0.015625 -0.0234375 -1.144531 0.234375 -2.28125 C 0.503906 -3.414062 0.820312 -4.492188 1.1875 -5.515625 C 1.5625 -6.535156 1.945312 -7.457031 2.34375 -8.28125 C 2.601562 -8.875 2.921875 -9.492188 3.296875 -10.140625 C 3.679688 -10.785156 4.101562 -11.398438 4.5625 -11.984375 C 5.03125 -12.566406 5.523438 -13.035156 6.046875 -13.390625 C 6.398438 -13.640625 6.789062 -13.84375 7.21875 -14 C 7.65625 -14.164062 8.070312 -14.238281 8.46875 -14.21875 C 8.769531 -14.207031 9.054688 -14.125 9.328125 -13.96875 C 9.597656 -13.820312 9.828125 -13.597656 10.015625 -13.296875 C 10.273438 -12.890625 10.410156 -12.5 10.421875 -12.125 C 10.429688 -11.75 10.421875 -11.328125 10.390625 -10.859375 C 10.367188 -10.441406 10.28125 -9.976562 10.125 -9.46875 C 9.976562 -8.96875 9.785156 -8.445312 9.546875 -7.90625 C 9.304688 -7.363281 9.0625 -6.84375 8.8125 -6.34375 C 8.5625 -5.851562 8.332031 -5.429688 8.125 -5.078125 C 8.050781 -4.929688 7.984375 -4.816406 7.921875 -4.734375 C 7.867188 -4.648438 7.75 -4.597656 7.5625 -4.578125 C 7.414062 -4.691406 7.347656 -4.789062 7.359375 -4.875 C 7.367188 -4.96875 7.421875 -5.101562 7.515625 -5.28125 C 7.566406 -5.414062 7.625 -5.535156 7.6875 -5.640625 C 7.75 -5.742188 7.804688 -5.859375 7.859375 -5.984375 C 8.285156 -6.828125 8.679688 -7.691406 9.046875 -8.578125 C 9.421875 -9.460938 9.640625 -10.410156 9.703125 -11.421875 C 9.742188 -12.054688 9.640625 -12.523438 9.390625 -12.828125 C 9.140625 -13.140625 8.820312 -13.304688 8.4375 -13.328125 C 7.78125 -13.367188 7.101562 -13.085938 6.40625 -12.484375 C 5.84375 -11.984375 5.3125 -11.351562 4.8125 -10.59375 C 4.320312 -9.84375 3.867188 -9.03125 3.453125 -8.15625 C 3.035156 -7.28125 2.664062 -6.410156 2.34375 -5.546875 C 2.03125 -4.679688 1.78125 -3.878906 1.59375 -3.140625 C 1.363281 -2.328125 1.15625 -1.429688 0.96875 -0.453125 C 0.789062 0.515625 0.691406 1.488281 0.671875 2.46875 C 0.648438 3.445312 0.773438 4.363281 1.046875 5.21875 C 1.179688 5.75 1.421875 6.222656 1.765625 6.640625 C 2.109375 7.054688 2.578125 7.285156 3.171875 7.328125 C 3.710938 7.359375 4.242188 7.242188 4.765625 6.984375 C 5.285156 6.734375 5.742188 6.476562 6.140625 6.21875 L 6.8125 5.6875 C 6.945312 5.582031 7.066406 5.492188 7.171875 5.421875 C 7.273438 5.359375 7.390625 5.265625 7.515625 5.140625 C 8.242188 4.492188 8.90625 3.78125 9.5 3 C 10.09375 2.21875 10.660156 1.394531 11.203125 0.53125 C 11.742188 -0.332031 12.257812 -1.175781 12.75 -2 C 12.882812 -2.21875 13.003906 -2.363281 13.109375 -2.4375 C 13.210938 -2.507812 13.304688 -2.539062 13.390625 -2.53125 C 13.484375 -2.53125 13.550781 -2.492188 13.59375 -2.421875 C 13.632812 -2.359375 13.648438 -2.296875 13.640625 -2.234375 L 10.578125 2.6875 C 10.390625 2.9375 10.203125 3.179688 10.015625 3.421875 C 9.835938 3.671875 9.648438 3.910156 9.453125 4.140625 C 9.171875 4.484375 8.785156 4.878906 8.296875 5.328125 C 7.816406 5.785156 7.285156 6.234375 6.703125 6.671875 C 6.117188 7.109375 5.519531 7.460938 4.90625 7.734375 C 4.289062 8.003906 3.691406 8.117188 3.109375 8.078125 C 2.484375 8.046875 1.957031 7.863281 1.53125 7.53125 C 1.113281 7.195312 0.773438 6.769531 0.515625 6.25 C 0.265625 5.738281 0.0820312 5.179688 -0.03125 4.578125 C -0.15625 3.984375 -0.226562 3.390625 -0.25 2.796875 C -0.28125 2.203125 -0.285156 1.671875 -0.265625 1.203125 Z M -0.265625 1.203125 "/></g></g></g><g fill="#264219" fill-opacity="1"><g transform="translate(88.921929, 42.236478)"><g><path d="M 0.96875 -0.375 C 1.15625 -0.40625 1.332031 -0.554688 1.5 -0.828125 C 1.664062 -1.109375 1.789062 -1.425781 1.875 -1.78125 C 1.957031 -2.144531 1.992188 -2.476562 1.984375 -2.78125 C 1.972656 -3.09375 1.882812 -3.304688 1.71875 -3.421875 C 1.675781 -3.285156 1.597656 -3.09375 1.484375 -2.84375 C 1.367188 -2.601562 1.253906 -2.332031 1.140625 -2.03125 C 1.023438 -1.726562 0.941406 -1.429688 0.890625 -1.140625 C 0.847656 -0.847656 0.875 -0.59375 0.96875 -0.375 Z M 0.0625 -1.0625 C 0.0703125 -1.226562 0.117188 -1.46875 0.203125 -1.78125 C 0.296875 -2.09375 0.414062 -2.429688 0.5625 -2.796875 C 0.707031 -3.160156 0.863281 -3.5 1.03125 -3.8125 C 1.207031 -4.132812 1.394531 -4.394531 1.59375 -4.59375 C 1.789062 -4.789062 1.984375 -4.882812 2.171875 -4.875 C 2.296875 -4.863281 2.378906 -4.800781 2.421875 -4.6875 C 2.460938 -4.582031 2.46875 -4.488281 2.4375 -4.40625 C 2.414062 -4.351562 2.363281 -4.296875 2.28125 -4.234375 C 2.207031 -4.179688 2.148438 -4.117188 2.109375 -4.046875 C 2.117188 -3.960938 2.171875 -3.863281 2.265625 -3.75 C 2.359375 -3.632812 2.445312 -3.488281 2.53125 -3.3125 C 2.625 -3.132812 2.675781 -2.890625 2.6875 -2.578125 C 2.707031 -2.273438 2.65625 -1.890625 2.53125 -1.421875 C 2.351562 -0.773438 2.101562 -0.300781 1.78125 0 C 1.46875 0.3125 1.171875 0.457031 0.890625 0.4375 C 0.648438 0.425781 0.441406 0.289062 0.265625 0.03125 C 0.0976562 -0.21875 0.03125 -0.582031 0.0625 -1.0625 Z M 0.0625 -1.0625 "/></g></g></g><g fill="#264219" fill-opacity="1"><g transform="translate(92.212554, 42.430654)"><g><path d="M 0.109375 -1.4375 C 0.148438 -2.0625 0.226562 -2.726562 0.34375 -3.4375 C 0.46875 -4.15625 0.613281 -4.867188 0.78125 -5.578125 C 0.945312 -6.285156 1.117188 -6.921875 1.296875 -7.484375 C 1.378906 -7.660156 1.457031 -7.863281 1.53125 -8.09375 C 1.601562 -8.332031 1.691406 -8.53125 1.796875 -8.6875 C 1.910156 -8.851562 2.050781 -8.929688 2.21875 -8.921875 C 2.363281 -8.910156 2.453125 -8.84375 2.484375 -8.71875 C 2.515625 -8.601562 2.507812 -8.46875 2.46875 -8.3125 C 2.425781 -8.164062 2.378906 -8.023438 2.328125 -7.890625 C 2.273438 -7.765625 2.238281 -7.675781 2.21875 -7.625 C 2.09375 -7.257812 1.945312 -6.757812 1.78125 -6.125 C 1.613281 -5.488281 1.445312 -4.796875 1.28125 -4.046875 C 1.113281 -3.304688 0.976562 -2.5625 0.875 -1.8125 C 0.769531 -1.0625 0.71875 -0.382812 0.71875 0.21875 C 0.71875 0.832031 0.789062 1.304688 0.9375 1.640625 C 1.15625 1.535156 1.335938 1.375 1.484375 1.15625 C 1.640625 0.945312 1.769531 0.734375 1.875 0.515625 C 2.207031 -0.00390625 2.523438 -0.5625 2.828125 -1.15625 C 3.140625 -1.757812 3.457031 -2.316406 3.78125 -2.828125 C 3.90625 -3.035156 4.023438 -3.132812 4.140625 -3.125 C 4.191406 -3.125 4.226562 -3.097656 4.25 -3.046875 C 4.28125 -3.003906 4.296875 -2.957031 4.296875 -2.90625 C 4.296875 -2.875 4.234375 -2.757812 4.109375 -2.5625 C 3.992188 -2.363281 3.878906 -2.160156 3.765625 -1.953125 C 3.648438 -1.753906 3.570312 -1.625 3.53125 -1.5625 C 3.382812 -1.3125 3.222656 -1.015625 3.046875 -0.671875 C 2.867188 -0.328125 2.695312 0.00390625 2.53125 0.328125 C 2.363281 0.660156 2.203125 0.941406 2.046875 1.171875 C 1.972656 1.273438 1.878906 1.40625 1.765625 1.5625 C 1.660156 1.71875 1.539062 1.851562 1.40625 1.96875 C 1.269531 2.09375 1.125 2.148438 0.96875 2.140625 C 0.71875 2.128906 0.523438 1.992188 0.390625 1.734375 C 0.265625 1.472656 0.179688 1.148438 0.140625 0.765625 C 0.0976562 0.390625 0.078125 0.00390625 0.078125 -0.390625 C 0.0859375 -0.796875 0.0976562 -1.144531 0.109375 -1.4375 Z M 0.109375 -1.4375 "/></g></g></g><g fill="#264219" fill-opacity="1"><g transform="translate(95.503179, 42.62483)"><g><path d="M 0.109375 -1.4375 C 0.148438 -2.0625 0.226562 -2.726562 0.34375 -3.4375 C 0.46875 -4.15625 0.613281 -4.867188 0.78125 -5.578125 C 0.945312 -6.285156 1.117188 -6.921875 1.296875 -7.484375 C 1.378906 -7.660156 1.457031 -7.863281 1.53125 -8.09375 C 1.601562 -8.332031 1.691406 -8.53125 1.796875 -8.6875 C 1.910156 -8.851562 2.050781 -8.929688 2.21875 -8.921875 C 2.363281 -8.910156 2.453125 -8.84375 2.484375 -8.71875 C 2.515625 -8.601562 2.507812 -8.46875 2.46875 -8.3125 C 2.425781 -8.164062 2.378906 -8.023438 2.328125 -7.890625 C 2.273438 -7.765625 2.238281 -7.675781 2.21875 -7.625 C 2.09375 -7.257812 1.945312 -6.757812 1.78125 -6.125 C 1.613281 -5.488281 1.445312 -4.796875 1.28125 -4.046875 C 1.113281 -3.304688 0.976562 -2.5625 0.875 -1.8125 C 0.769531 -1.0625 0.71875 -0.382812 0.71875 0.21875 C 0.71875 0.832031 0.789062 1.304688 0.9375 1.640625 C 1.15625 1.535156 1.335938 1.375 1.484375 1.15625 C 1.640625 0.945312 1.769531 0.734375 1.875 0.515625 C 2.207031 -0.00390625 2.523438 -0.5625 2.828125 -1.15625 C 3.140625 -1.757812 3.457031 -2.316406 3.78125 -2.828125 C 3.90625 -3.035156 4.023438 -3.132812 4.140625 -3.125 C 4.191406 -3.125 4.226562 -3.097656 4.25 -3.046875 C 4.28125 -3.003906 4.296875 -2.957031 4.296875 -2.90625 C 4.296875 -2.875 4.234375 -2.757812 4.109375 -2.5625 C 3.992188 -2.363281 3.878906 -2.160156 3.765625 -1.953125 C 3.648438 -1.753906 3.570312 -1.625 3.53125 -1.5625 C 3.382812 -1.3125 3.222656 -1.015625 3.046875 -0.671875 C 2.867188 -0.328125 2.695312 0.00390625 2.53125 0.328125 C 2.363281 0.660156 2.203125 0.941406 2.046875 1.171875 C 1.972656 1.273438 1.878906 1.40625 1.765625 1.5625 C 1.660156 1.71875 1.539062 1.851562 1.40625 1.96875 C 1.269531 2.09375 1.125 2.148438 0.96875 2.140625 C 0.71875 2.128906 0.523438 1.992188 0.390625 1.734375 C 0.265625 1.472656 0.179688 1.148438 0.140625 0.765625 C 0.0976562 0.390625 0.078125 0.00390625 0.078125 -0.390625 C 0.0859375 -0.796875 0.0976562 -1.144531 0.109375 -1.4375 Z M 0.109375 -1.4375 "/></g></g></g><g fill="#264219" fill-opacity="1"><g transform="translate(98.793805, 42.819007)"><g><path d="M 1.0625 -3.34375 C 1.300781 -3.445312 1.570312 -3.597656 1.875 -3.796875 C 2.175781 -4.003906 2.347656 -4.253906 2.390625 -4.546875 C 2.222656 -4.523438 2.046875 -4.445312 1.859375 -4.3125 C 1.671875 -4.1875 1.503906 -4.03125 1.359375 -3.84375 C 1.222656 -3.664062 1.125 -3.5 1.0625 -3.34375 Z M 0.1875 -2.9375 C 0.207031 -3.25 0.332031 -3.578125 0.5625 -3.921875 C 0.789062 -4.273438 1.066406 -4.566406 1.390625 -4.796875 C 1.710938 -5.035156 2.019531 -5.144531 2.3125 -5.125 C 2.726562 -5.101562 2.929688 -4.9375 2.921875 -4.625 C 2.921875 -4.320312 2.769531 -4 2.46875 -3.65625 C 2.300781 -3.5 2.0625 -3.320312 1.75 -3.125 C 1.445312 -2.9375 1.148438 -2.832031 0.859375 -2.8125 C 0.847656 -2.613281 0.84375 -2.4375 0.84375 -2.28125 C 0.851562 -2.125 0.929688 -1.960938 1.078125 -1.796875 C 1.234375 -1.617188 1.4375 -1.523438 1.6875 -1.515625 C 2.007812 -1.492188 2.347656 -1.578125 2.703125 -1.765625 C 3.066406 -1.953125 3.347656 -2.109375 3.546875 -2.234375 C 3.628906 -2.296875 3.691406 -2.34375 3.734375 -2.375 C 3.785156 -2.40625 3.84375 -2.445312 3.90625 -2.5 C 4.175781 -2.675781 4.347656 -2.8125 4.421875 -2.90625 C 4.492188 -3 4.554688 -3.054688 4.609375 -3.078125 C 4.660156 -3.109375 4.78125 -3.117188 4.96875 -3.109375 C 4.976562 -2.972656 4.976562 -2.878906 4.96875 -2.828125 C 4.957031 -2.773438 4.910156 -2.703125 4.828125 -2.609375 C 4.597656 -2.398438 4.300781 -2.160156 3.9375 -1.890625 C 3.570312 -1.628906 3.1875 -1.398438 2.78125 -1.203125 C 2.375 -1.015625 1.976562 -0.929688 1.59375 -0.953125 C 1.394531 -0.960938 1.207031 -1.003906 1.03125 -1.078125 C 0.851562 -1.160156 0.691406 -1.289062 0.546875 -1.46875 C 0.328125 -1.71875 0.207031 -1.957031 0.1875 -2.1875 C 0.175781 -2.425781 0.175781 -2.675781 0.1875 -2.9375 Z M 0.1875 -2.9375 "/></g></g></g><g fill="#264219" fill-opacity="1"><g transform="translate(102.850997, 43.058417)"><g><path d="M 0.15625 -2.5625 C 0.164062 -2.789062 0.222656 -3.050781 0.328125 -3.34375 C 0.441406 -3.632812 0.59375 -3.914062 0.78125 -4.1875 C 0.96875 -4.46875 1.179688 -4.695312 1.421875 -4.875 C 1.671875 -5.050781 1.929688 -5.132812 2.203125 -5.125 C 2.597656 -5.101562 2.78125 -4.84375 2.75 -4.34375 C 2.726562 -4.03125 2.640625 -3.878906 2.484375 -3.890625 C 2.296875 -3.898438 2.191406 -4.0625 2.171875 -4.375 C 1.953125 -4.238281 1.734375 -3.992188 1.515625 -3.640625 C 1.304688 -3.296875 1.15625 -2.921875 1.0625 -2.515625 C 0.976562 -2.109375 1.003906 -1.742188 1.140625 -1.421875 C 1.191406 -1.253906 1.269531 -1.109375 1.375 -0.984375 C 1.488281 -0.867188 1.660156 -0.804688 1.890625 -0.796875 C 2.316406 -0.773438 2.722656 -0.867188 3.109375 -1.078125 C 3.492188 -1.296875 3.847656 -1.566406 4.171875 -1.890625 C 4.492188 -2.222656 4.78125 -2.539062 5.03125 -2.84375 C 5.175781 -3.019531 5.304688 -3.101562 5.421875 -3.09375 C 5.503906 -3.09375 5.5625 -3.046875 5.59375 -2.953125 C 5.625 -2.859375 5.601562 -2.753906 5.53125 -2.640625 C 5.507812 -2.578125 5.46875 -2.507812 5.40625 -2.4375 C 5.34375 -2.375 5.285156 -2.3125 5.234375 -2.25 C 4.953125 -1.9375 4.632812 -1.613281 4.28125 -1.28125 C 3.925781 -0.957031 3.539062 -0.6875 3.125 -0.46875 C 2.707031 -0.25 2.273438 -0.148438 1.828125 -0.171875 C 1.410156 -0.203125 1.070312 -0.332031 0.8125 -0.5625 C 0.5625 -0.800781 0.378906 -1.097656 0.265625 -1.453125 C 0.160156 -1.804688 0.125 -2.175781 0.15625 -2.5625 Z M 0.15625 -2.5625 "/></g></g></g><g fill="#264219" fill-opacity="1"><g transform="translate(107.375608, 43.32541)"><g><path d="M -4.75 -8.65625 C -4.75 -8.8125 -4.59375 -8.96875 -4.28125 -9.125 C -3.976562 -9.289062 -3.59375 -9.445312 -3.125 -9.59375 C -2.664062 -9.75 -2.175781 -9.890625 -1.65625 -10.015625 C -1.144531 -10.148438 -0.671875 -10.257812 -0.234375 -10.34375 C 0.191406 -10.425781 0.515625 -10.492188 0.734375 -10.546875 C 0.992188 -10.597656 1.175781 -10.628906 1.28125 -10.640625 C 1.394531 -10.648438 1.46875 -10.6875 1.5 -10.75 C 1.539062 -10.820312 1.582031 -10.957031 1.625 -11.15625 C 1.757812 -11.675781 1.894531 -12.023438 2.03125 -12.203125 C 2.175781 -12.390625 2.3125 -12.484375 2.4375 -12.484375 C 2.539062 -12.472656 2.625 -12.410156 2.6875 -12.296875 C 2.75 -12.179688 2.773438 -12.050781 2.765625 -11.90625 C 2.765625 -11.789062 2.753906 -11.742188 2.734375 -11.765625 C 2.722656 -11.785156 2.722656 -11.742188 2.734375 -11.640625 C 2.734375 -11.617188 2.734375 -11.585938 2.734375 -11.546875 C 2.742188 -11.515625 2.75 -11.46875 2.75 -11.40625 C 2.738281 -11.238281 2.703125 -11.15625 2.640625 -11.15625 C 2.578125 -11.164062 2.507812 -11.160156 2.4375 -11.140625 C 2.375 -11.128906 2.335938 -11.023438 2.328125 -10.828125 C 2.472656 -10.816406 2.640625 -10.828125 2.828125 -10.859375 C 3.015625 -10.898438 3.175781 -10.921875 3.3125 -10.921875 C 3.863281 -10.984375 4.414062 -11.039062 4.96875 -11.09375 C 5.519531 -11.144531 6.082031 -11.148438 6.65625 -11.109375 C 6.945312 -11.097656 7.160156 -11.023438 7.296875 -10.890625 C 7.429688 -10.753906 7.472656 -10.625 7.421875 -10.5 C 7.378906 -10.382812 7.238281 -10.332031 7 -10.34375 C 6.976562 -10.445312 6.960938 -10.492188 6.953125 -10.484375 C 6.953125 -10.472656 6.894531 -10.488281 6.78125 -10.53125 C 6.738281 -10.539062 6.640625 -10.550781 6.484375 -10.5625 C 6.222656 -10.570312 5.878906 -10.5625 5.453125 -10.53125 C 5.023438 -10.5 4.578125 -10.457031 4.109375 -10.40625 C 3.648438 -10.363281 3.234375 -10.320312 2.859375 -10.28125 C 2.492188 -10.238281 2.253906 -10.203125 2.140625 -10.171875 L 1.53125 -6.359375 C 1.519531 -6.273438 1.515625 -6.179688 1.515625 -6.078125 C 1.515625 -5.984375 1.507812 -5.882812 1.5 -5.78125 C 1.488281 -5.65625 1.472656 -5.570312 1.453125 -5.53125 C 1.441406 -5.5 1.429688 -5.414062 1.421875 -5.28125 C 1.410156 -5.007812 1.398438 -4.695312 1.390625 -4.34375 C 1.378906 -3.988281 1.351562 -3.710938 1.3125 -3.515625 C 1.300781 -3.398438 1.28125 -3.175781 1.25 -2.84375 C 1.21875 -2.519531 1.1875 -2.140625 1.15625 -1.703125 C 1.125 -1.265625 1.09375 -0.820312 1.0625 -0.375 C 1.039062 0.0625 1.019531 0.460938 1 0.828125 C 0.976562 1.191406 0.96875 1.457031 0.96875 1.625 C 0.957031 1.757812 0.957031 1.96875 0.96875 2.25 C 0.988281 2.53125 0.984375 2.78125 0.953125 3 C 0.929688 3.226562 0.835938 3.335938 0.671875 3.328125 C 0.429688 3.316406 0.296875 3.175781 0.265625 2.90625 C 0.234375 2.632812 0.222656 2.390625 0.234375 2.171875 C 0.210938 1.722656 0.21875 1.195312 0.25 0.59375 C 0.28125 0 0.316406 -0.59375 0.359375 -1.1875 C 0.398438 -1.789062 0.4375 -2.320312 0.46875 -2.78125 L 0.578125 -3.65625 C 0.585938 -3.832031 0.601562 -4.097656 0.625 -4.453125 C 0.644531 -4.804688 0.671875 -5.1875 0.703125 -5.59375 C 0.742188 -6 0.78125 -6.367188 0.8125 -6.703125 C 0.84375 -7.035156 0.875 -7.269531 0.90625 -7.40625 C 0.9375 -7.53125 0.960938 -7.679688 0.984375 -7.859375 C 1.003906 -8.035156 1.023438 -8.1875 1.046875 -8.3125 L 1.3125 -10.03125 C 1.257812 -10.03125 1.144531 -10.015625 0.96875 -9.984375 C 0.800781 -9.960938 0.664062 -9.9375 0.5625 -9.90625 C -0.0507812 -9.800781 -0.640625 -9.679688 -1.203125 -9.546875 C -1.773438 -9.410156 -2.363281 -9.242188 -2.96875 -9.046875 C -3.082031 -9.003906 -3.1875 -8.957031 -3.28125 -8.90625 C -3.375 -8.863281 -3.484375 -8.816406 -3.609375 -8.765625 C -3.753906 -8.710938 -3.847656 -8.675781 -3.890625 -8.65625 C -3.929688 -8.632812 -3.953125 -8.601562 -3.953125 -8.5625 C -3.960938 -8.53125 -4 -8.453125 -4.0625 -8.328125 C -4.113281 -8.316406 -4.164062 -8.304688 -4.21875 -8.296875 C -4.269531 -8.296875 -4.328125 -8.296875 -4.390625 -8.296875 C -4.484375 -8.304688 -4.566406 -8.335938 -4.640625 -8.390625 C -4.722656 -8.441406 -4.757812 -8.53125 -4.75 -8.65625 Z M -4.75 -8.65625 "/></g></g></g><g fill="#264219" fill-opacity="1"><g transform="translate(109.54443, 43.45339)"><g><path d="M 1.5625 0.171875 C 1.3125 0.148438 1.09375 0.0546875 0.90625 -0.109375 C 0.71875 -0.285156 0.582031 -0.460938 0.5 -0.640625 C 0.289062 -1.085938 0.1875 -1.597656 0.1875 -2.171875 C 0.1875 -2.753906 0.253906 -3.28125 0.390625 -3.75 C 0.421875 -3.882812 0.460938 -4.046875 0.515625 -4.234375 C 0.578125 -4.421875 0.65625 -4.585938 0.75 -4.734375 C 0.84375 -4.878906 0.953125 -4.945312 1.078125 -4.9375 C 1.367188 -4.914062 1.503906 -4.8125 1.484375 -4.625 C 1.472656 -4.4375 1.40625 -4.144531 1.28125 -3.75 C 1.15625 -3.351562 1.070312 -2.835938 1.03125 -2.203125 C 1.019531 -2.015625 1.03125 -1.785156 1.0625 -1.515625 C 1.09375 -1.253906 1.15625 -1.019531 1.25 -0.8125 C 1.351562 -0.601562 1.484375 -0.492188 1.640625 -0.484375 C 1.835938 -0.472656 2.066406 -0.546875 2.328125 -0.703125 C 2.597656 -0.867188 2.847656 -1.050781 3.078125 -1.25 C 3.316406 -1.457031 3.484375 -1.613281 3.578125 -1.71875 C 3.597656 -1.75 3.671875 -1.832031 3.796875 -1.96875 C 3.921875 -2.101562 4.066406 -2.253906 4.234375 -2.421875 C 4.398438 -2.597656 4.5625 -2.75 4.71875 -2.875 C 4.875 -3.007812 4.992188 -3.078125 5.078125 -3.078125 C 5.160156 -3.066406 5.195312 -2.984375 5.1875 -2.828125 C 5.175781 -2.742188 5.109375 -2.613281 4.984375 -2.4375 C 4.859375 -2.257812 4.707031 -2.078125 4.53125 -1.890625 C 4.363281 -1.703125 4.195312 -1.523438 4.03125 -1.359375 C 3.863281 -1.191406 3.742188 -1.070312 3.671875 -1 C 3.515625 -0.863281 3.320312 -0.695312 3.09375 -0.5 C 2.875 -0.3125 2.632812 -0.144531 2.375 0 C 2.125 0.132812 1.851562 0.191406 1.5625 0.171875 Z M 1.390625 -7.28125 C 1.398438 -7.5 1.46875 -7.679688 1.59375 -7.828125 C 1.71875 -7.984375 1.847656 -8.054688 1.984375 -8.046875 C 2.128906 -8.046875 2.25 -7.945312 2.34375 -7.75 C 2.5 -7.382812 2.503906 -7.109375 2.359375 -6.921875 C 2.222656 -6.734375 2.0625 -6.644531 1.875 -6.65625 C 1.75 -6.664062 1.632812 -6.722656 1.53125 -6.828125 C 1.425781 -6.929688 1.378906 -7.082031 1.390625 -7.28125 Z M 1.390625 -7.28125 "/></g></g></g><g fill="#264219" fill-opacity="1"><g transform="translate(113.807285, 43.704936)"><g><path d="M 0.96875 -0.375 C 1.15625 -0.40625 1.332031 -0.554688 1.5 -0.828125 C 1.664062 -1.109375 1.789062 -1.425781 1.875 -1.78125 C 1.957031 -2.144531 1.992188 -2.476562 1.984375 -2.78125 C 1.972656 -3.09375 1.882812 -3.304688 1.71875 -3.421875 C 1.675781 -3.285156 1.597656 -3.09375 1.484375 -2.84375 C 1.367188 -2.601562 1.253906 -2.332031 1.140625 -2.03125 C 1.023438 -1.726562 0.941406 -1.429688 0.890625 -1.140625 C 0.847656 -0.847656 0.875 -0.59375 0.96875 -0.375 Z M 0.0625 -1.0625 C 0.0703125 -1.226562 0.117188 -1.46875 0.203125 -1.78125 C 0.296875 -2.09375 0.414062 -2.429688 0.5625 -2.796875 C 0.707031 -3.160156 0.863281 -3.5 1.03125 -3.8125 C 1.207031 -4.132812 1.394531 -4.394531 1.59375 -4.59375 C 1.789062 -4.789062 1.984375 -4.882812 2.171875 -4.875 C 2.296875 -4.863281 2.378906 -4.800781 2.421875 -4.6875 C 2.460938 -4.582031 2.46875 -4.488281 2.4375 -4.40625 C 2.414062 -4.351562 2.363281 -4.296875 2.28125 -4.234375 C 2.207031 -4.179688 2.148438 -4.117188 2.109375 -4.046875 C 2.117188 -3.960938 2.171875 -3.863281 2.265625 -3.75 C 2.359375 -3.632812 2.445312 -3.488281 2.53125 -3.3125 C 2.625 -3.132812 2.675781 -2.890625 2.6875 -2.578125 C 2.707031 -2.273438 2.65625 -1.890625 2.53125 -1.421875 C 2.351562 -0.773438 2.101562 -0.300781 1.78125 0 C 1.46875 0.3125 1.171875 0.457031 0.890625 0.4375 C 0.648438 0.425781 0.441406 0.289062 0.265625 0.03125 C 0.0976562 -0.21875 0.03125 -0.582031 0.0625 -1.0625 Z M 0.0625 -1.0625 "/></g></g></g><g fill="#264219" fill-opacity="1"><g transform="translate(117.097911, 43.899112)"><g><path d="M 0.59375 -0.9375 C 0.351562 -0.945312 0.207031 -1.097656 0.15625 -1.390625 C 0.101562 -1.691406 0.113281 -2.054688 0.1875 -2.484375 C 0.257812 -2.910156 0.375 -3.332031 0.53125 -3.75 C 0.6875 -4.175781 0.851562 -4.523438 1.03125 -4.796875 C 1.21875 -5.066406 1.378906 -5.195312 1.515625 -5.1875 C 1.722656 -5.175781 1.816406 -5.070312 1.796875 -4.875 C 1.773438 -4.6875 1.695312 -4.441406 1.5625 -4.140625 C 1.425781 -3.835938 1.289062 -3.5 1.15625 -3.125 C 1.03125 -2.75 0.957031 -2.378906 0.9375 -2.015625 L 1.90625 -3.328125 C 1.945312 -3.398438 2.035156 -3.523438 2.171875 -3.703125 C 2.304688 -3.890625 2.457031 -4.054688 2.625 -4.203125 C 2.789062 -4.347656 2.945312 -4.414062 3.09375 -4.40625 C 3.238281 -4.40625 3.351562 -4.304688 3.4375 -4.109375 L 3.484375 -3.046875 C 3.484375 -2.941406 3.476562 -2.765625 3.46875 -2.515625 C 3.46875 -2.273438 3.484375 -2.03125 3.515625 -1.78125 C 3.546875 -1.539062 3.601562 -1.332031 3.6875 -1.15625 C 3.78125 -0.976562 3.914062 -0.882812 4.09375 -0.875 C 4.28125 -0.863281 4.476562 -0.960938 4.6875 -1.171875 C 4.90625 -1.378906 5.117188 -1.625 5.328125 -1.90625 C 5.546875 -2.1875 5.738281 -2.4375 5.90625 -2.65625 C 6.070312 -2.875 6.203125 -2.976562 6.296875 -2.96875 C 6.484375 -2.957031 6.5625 -2.878906 6.53125 -2.734375 C 6.507812 -2.597656 6.4375 -2.4375 6.3125 -2.25 C 6.195312 -2.070312 6.070312 -1.90625 5.9375 -1.75 C 5.8125 -1.601562 5.738281 -1.507812 5.71875 -1.46875 C 5.613281 -1.351562 5.484375 -1.210938 5.328125 -1.046875 C 5.171875 -0.890625 5.003906 -0.738281 4.828125 -0.59375 C 4.648438 -0.457031 4.492188 -0.375 4.359375 -0.34375 C 4.234375 -0.3125 4.113281 -0.300781 4 -0.3125 C 3.71875 -0.332031 3.492188 -0.453125 3.328125 -0.671875 C 3.171875 -0.898438 3.0625 -1.140625 3 -1.390625 C 2.894531 -1.765625 2.84375 -2.097656 2.84375 -2.390625 C 2.84375 -2.691406 2.859375 -2.941406 2.890625 -3.140625 C 2.921875 -3.347656 2.90625 -3.507812 2.84375 -3.625 C 2.6875 -3.539062 2.515625 -3.351562 2.328125 -3.0625 C 2.140625 -2.769531 1.941406 -2.457031 1.734375 -2.125 C 1.535156 -1.789062 1.34375 -1.503906 1.15625 -1.265625 C 0.96875 -1.035156 0.78125 -0.925781 0.59375 -0.9375 Z M 0.59375 -0.9375 "/></g></g></g></svg>